<?xml version="1.0" standalone="no"?>
<!DOCTYPE svg PUBLIC "-//W3C//DTD SVG 20010904//EN"
 "http://www.w3.org/TR/2001/REC-SVG-20010904/DTD/svg10.dtd">
<svg version="1.0" xmlns="http://www.w3.org/2000/svg"
 width="1024.000000pt" height="512.000000pt" viewBox="0 0 1024.000000 512.000000"
 preserveAspectRatio="xMidYMid meet">

<g transform="translate(0.000000,512.000000) scale(0.100000,-0.100000)"
fill="#000000" stroke="none">
<path d="M0 2560 l0 -2560 5120 0 5120 0 0 2560 0 2560 -5120 0 -5120 0 0
-2560z m2108 1795 c194 -40 423 -172 642 -367 36 -32 69 -58 73 -58 5 0 33 21
61 48 210 190 411 315 597 368 77 22 104 26 182 22 113 -6 169 -29 236 -96
163 -163 205 -542 106 -965 -13 -57 -13 -58 8 -67 12 -4 76 -27 142 -51 230
-81 413 -187 538 -311 87 -87 143 -188 154 -277 7 -61 -23 -165 -68 -236 -98
-155 -347 -319 -644 -425 -66 -24 -123 -46 -127 -50 -4 -3 -3 -21 2 -40 50
-172 67 -517 35 -675 -51 -243 -162 -376 -342 -404 -205 -32 -540 128 -820
392 l-51 48 -90 -77 c-192 -164 -376 -276 -542 -329 -70 -23 -104 -28 -195
-29 -106 -1 -113 0 -177 32 -79 39 -126 89 -173 187 -77 158 -95 392 -50 660
14 83 29 167 34 188 8 34 7 39 -12 47 -12 4 -69 25 -127 46 -281 101 -508 248
-615 398 -67 95 -87 155 -83 251 5 115 43 193 146 295 132 133 318 238 568
322 71 23 130 44 132 44 1 1 -2 23 -8 50 -34 149 -52 285 -57 419 -4 128 -2
166 16 255 36 175 102 291 199 347 89 53 186 64 310 38z m5987 -1655 c92 -35
154 -82 228 -173 40 -49 46 -61 35 -74 -7 -8 -66 -51 -132 -95 l-120 -79 -50
57 c-59 67 -94 84 -173 84 -92 0 -149 -46 -160 -128 -12 -87 48 -145 228 -223
389 -168 503 -288 516 -539 11 -209 -72 -358 -250 -444 -106 -52 -172 -66
-318 -66 -264 0 -462 95 -587 281 -34 50 -40 65 -30 75 13 11 256 154 263 154
2 0 41 -37 87 -83 73 -73 90 -85 145 -102 84 -24 193 -18 253 16 63 35 85 70
85 134 0 95 -39 128 -283 240 -259 118 -344 184 -413 322 -34 68 -34 69 -34
208 0 137 1 141 32 205 56 115 171 208 304 245 83 23 295 14 374 -15z m-915
-145 l0 -155 -235 0 -235 0 -2 -677 -3 -678 -172 -3 -173 -2 0 680 0 680 -240
0 -240 0 0 155 0 155 650 0 650 0 0 -155z"/>
<path d="M3615 4212 c-125 -11 -319 -105 -485 -235 -85 -66 -190 -159 -190
-167 0 -4 35 -47 78 -97 44 -50 121 -146 172 -214 51 -68 93 -125 94 -126 0 0
46 -6 101 -13 55 -6 165 -22 245 -36 80 -14 159 -28 176 -31 38 -6 36 -11 65
152 28 157 31 426 6 528 -30 121 -97 219 -160 231 -41 9 -72 11 -102 8z"/>
<path d="M1905 4196 c-64 -28 -121 -118 -146 -233 -17 -73 -17 -341 0 -443 15
-96 42 -213 50 -222 4 -4 83 6 176 22 94 16 216 34 273 40 l103 12 30 45 c45
65 183 237 255 319 l63 70 -47 46 c-259 248 -610 408 -757 344z"/>
<path d="M2769 3633 c-67 -73 -189 -224 -189 -235 0 -4 111 -8 246 -8 193 0
244 3 238 13 -11 18 -147 184 -196 241 l-44 48 -55 -59z"/>
<path d="M2505 3221 l-60 -6 -40 -60 c-99 -145 -290 -482 -315 -556 -12 -32
-10 -41 12 -90 37 -81 158 -295 255 -449 l85 -137 76 -7 c93 -8 534 -6 621 3
l63 6 69 110 c79 125 209 354 264 464 l37 74 -53 101 c-73 139 -147 269 -240
417 l-80 126 -91 7 c-107 7 -516 5 -603 -3z m442 -313 c71 -26 155 -104 190
-176 25 -51 28 -68 28 -157 0 -91 -3 -105 -29 -155 -64 -125 -177 -193 -321
-194 -71 -1 -88 3 -146 31 -128 64 -201 177 -203 318 -2 135 71 258 186 314
109 54 188 59 295 19z"/>
<path d="M2190 3193 c-132 -18 -327 -56 -337 -66 -2 -3 16 -60 41 -128 69
-189 83 -223 92 -226 5 -2 25 27 43 64 19 36 72 129 118 206 46 77 80 143 76
147 -4 3 -19 5 -33 3z"/>
<path d="M3415 3190 c-2 -4 39 -78 91 -166 52 -87 105 -180 117 -206 12 -26
26 -47 30 -48 4 0 17 21 29 48 24 55 108 289 108 301 0 11 -99 35 -230 56
-137 23 -140 23 -145 15z"/>
<path d="M1580 3056 c-224 -76 -415 -182 -522 -288 -140 -141 -134 -265 22
-411 81 -77 165 -133 295 -196 116 -57 305 -125 315 -114 4 5 26 64 50 133 23
69 66 182 96 252 30 70 54 133 54 141 0 8 -6 27 -14 43 -35 72 -98 230 -137
346 -24 71 -48 128 -54 127 -5 0 -53 -15 -105 -33z"/>
<path d="M3940 3065 c-5 -14 -13 -38 -16 -53 -10 -38 -88 -241 -135 -347 l-40
-90 47 -105 c49 -112 78 -185 126 -320 16 -47 33 -88 37 -93 12 -12 205 59
331 122 318 158 455 343 367 493 -84 144 -298 281 -601 384 -55 19 -101 34
-103 34 -2 0 -8 -11 -13 -25z"/>
<path d="M1973 2353 c-3 -10 -18 -49 -33 -88 -52 -132 -92 -256 -87 -262 8 -7
233 -49 315 -58 41 -5 62 -3 62 4 0 5 -31 61 -68 123 -38 62 -90 155 -118 205
-27 51 -53 93 -57 93 -4 0 -10 -8 -14 -17z"/>
<path d="M3596 2277 c-26 -50 -80 -145 -118 -210 -39 -65 -69 -120 -66 -122 9
-9 365 51 381 65 14 12 -118 360 -137 360 -6 0 -33 -42 -60 -93z"/>
<path d="M3805 1845 c-19 -8 -241 -44 -379 -62 l-138 -18 -98 -130 c-53 -71
-132 -170 -174 -220 l-76 -90 53 -48 c220 -201 459 -334 619 -344 95 -7 118
-1 163 39 72 63 105 150 125 334 13 127 -3 328 -41 497 -11 45 -22 54 -54 42z"/>
<path d="M1787 1768 c-34 -151 -40 -208 -41 -373 -1 -186 8 -243 55 -336 33
-67 86 -116 135 -125 140 -26 364 59 577 220 80 60 190 155 195 167 2 4 -39
58 -92 119 -52 61 -127 154 -167 208 -86 116 -93 122 -137 122 -42 0 -224 25
-368 50 -61 11 -118 20 -126 20 -10 0 -20 -22 -31 -72z"/>
<path d="M2580 1744 c0 -20 233 -294 250 -294 13 0 240 278 240 294 0 3 -110
6 -245 6 -135 0 -245 -3 -245 -6z"/>
</g>
</svg>
